<?xml version="1.0" standalone="no"?>
<!DOCTYPE svg PUBLIC "-//W3C//DTD SVG 20010904//EN"
 "http://www.w3.org/TR/2001/REC-SVG-20010904/DTD/svg10.dtd">
<svg version="1.0" xmlns="http://www.w3.org/2000/svg"
 width="1536.000000pt" height="864.000000pt" viewBox="0 0 1536.000000 864.000000"
 preserveAspectRatio="xMidYMid meet">
<metadata>
Created by potrace 1.16, written by Peter Selinger 2001-2019
</metadata>
<g transform="translate(0.000000,864.000000) scale(0.100000,-0.100000)"
fill="#000000" stroke="none">
<path d="M9000 5098 c-272 -590 -648 -1408 -837 -1817 -189 -410 -343 -748
-343 -753 0 -5 138 -7 307 -6 l307 3 120 268 120 267 840 0 841 0 121 -267
120 -268 307 -3 c169 -1 307 1 307 6 0 7 -93 210 -247 542 -21 47 -351 763
-733 1593 -600 1303 -697 1507 -715 1507 -18 0 -89 -147 -515 -1072z m820
-847 c166 -371 304 -680 307 -687 4 -12 -95 -14 -612 -14 -584 0 -617 1 -610
18 11 29 610 1360 611 1358 1 0 138 -304 304 -675z"/>
<path d="M2940 6154 c-14 -2 -65 -9 -115 -15 -117 -14 -289 -60 -418 -111
-351 -141 -660 -392 -867 -708 -273 -416 -366 -893 -269 -1373 145 -716 712
-1285 1434 -1441 573 -123 1115 30 1558 440 31 29 57 56 57 59 0 3 -73 107
-161 231 -143 199 -164 223 -178 211 -9 -7 -45 -39 -81 -71 -132 -117 -337
-237 -493 -287 -161 -52 -367 -65 -538 -35 -228 41 -464 161 -647 331 -192
179 -315 387 -379 642 -24 97 -27 127 -27 283 -1 189 13 272 71 425 120 320
386 600 702 739 418 184 860 123 1236 -170 44 -34 98 -78 120 -98 22 -20 44
-34 50 -33 10 4 325 427 325 438 0 3 -36 38 -80 77 -226 201 -506 352 -779
422 -152 39 -408 60 -521 44z"/>
<path d="M4760 4310 l0 -1790 280 0 280 0 0 755 0 755 770 0 770 0 0 -755 0
-755 285 0 285 0 0 1790 0 1790 -285 0 -285 0 0 -755 0 -755 -770 0 -770 0 0
755 0 755 -280 0 -280 0 0 -1790z"/>
<path d="M11610 4310 l0 -1790 1065 0 1065 0 0 285 0 285 -780 0 -780 0 0 490
0 490 670 0 670 0 0 280 0 280 -670 0 -670 0 0 455 0 455 780 0 780 0 0 280 0
280 -1065 0 -1065 0 0 -1790z"/>
</g>
</svg>
